<?xml version="1.0" encoding="utf-8"?>
<!-- Generator: Adobe Illustrator 26.3.1, SVG Export Plug-In . SVG Version: 6.00 Build 0)  -->
<svg version="1.1" id="Warstwa_1" xmlns="http://www.w3.org/2000/svg" xmlns:xlink="http://www.w3.org/1999/xlink" x="0px" y="0px"
	 viewBox="0 0 155.4 134.9" style="enable-background:new 0 0 155.4 134.9;" xml:space="preserve">
<style type="text/css">
	.st0{fill-rule:evenodd;clip-rule:evenodd;fill:#FFFFFF;}
	.st1{fill-rule:evenodd;clip-rule:evenodd;fill:#E7386D;}
</style>
<g>
	<path class="st0" d="M69.9,113.7c-34.5-0.9-61.3-7.3-61.3-15.2c0-2.7,3.1-5.1,8.4-7.3c-0.3-1-0.4-2.2-0.3-3.3
		C7.7,91.1,2.4,95,2.4,99.2c0,10,29.6,18.2,67.5,19.2v7.2l14.3-10l-14.3-7.5V113.7L69.9,113.7z M138.8,87.9
		c-0.1,1.1-0.1,2.2-0.2,3.3c5.3,2.2,8.2,4.6,8.2,7.2c0,7.3-23,13.4-53.8,14.9c-1.5,1.7-3,3.3-4.6,4.9C124.9,117,153,109,153,99.2
		C153,95,147.7,91.1,138.8,87.9z"/>
	<g>
		<g>
			<path class="st1" d="M25.9,33.1h4.4v6.7c0,1.2,0.2,2.1,0.6,2.7c0.4,0.6,1,0.9,1.9,0.9c0.6,0,1-0.1,1.3-0.4
				c0.3-0.3,0.6-0.7,0.7-1.2c0.1-0.5,0.2-1,0.3-1.4c0-0.4,0.1-0.9,0.1-1.6c0-0.7-0.1-1.4-0.2-2c-0.1-0.7-0.3-1.2-0.4-1.7
				c-0.1-0.4-0.4-1-0.7-1.7c-0.4-0.7-0.6-1.2-0.8-1.4c-0.2-0.2-0.5-0.7-1-1.5c-0.5-0.8-0.8-1.2-0.9-1.3l-2-3c-2-3-2.9-6.1-2.9-9.3
				c0-2.1,0.6-3.9,1.8-5.4c1.2-1.4,3.1-2.2,5.6-2.2c4.1,0,6.1,2.1,6.1,6.3V22h-4.4v-6.3c0-1.8-0.6-2.7-1.9-2.7
				c-0.7,0-1.3,0.2-1.7,0.6c-0.4,0.4-0.6,0.9-0.6,1.3c-0.1,0.4-0.1,1-0.1,1.8c0,1.2,0.2,2.3,0.5,3.4c0.3,1.1,0.7,1.9,1,2.5
				c0.3,0.6,0.9,1.5,1.7,2.6l2.6,3.8c2.1,3.1,3.2,6.1,3.2,9c0,6.1-2.4,9.1-7.2,9.1c-2.3,0-4-0.7-5.3-2.2c-1.1-1.2-1.6-3.2-1.6-5.8
				V33.1L25.9,33.1z M45.7,10h9.4c1.9,0,3.2,0.4,3.9,1.2c0.7,0.8,1,2.2,1,4.2v7.7c0,2.7-0.3,4.5-0.8,5.4c-0.5,0.9-1.9,1.4-4.1,1.4
				h-4.8v16.5h-4.7V10L45.7,10z M50.4,14.4v11.2h3c0.7,0,1.1-0.1,1.3-0.3c0.2-0.2,0.4-0.6,0.4-1.3v-7.7c0-0.7-0.1-1.2-0.4-1.4
				c-0.2-0.3-0.7-0.4-1.4-0.4H50.4L50.4,14.4z M70.1,46.5h-4.8V10h4.8V46.5L70.1,46.5z M92.1,46.5h-5.3l-5.9-26.8l0.5,26.8h-4.5V10
				H82l5.8,24.9c-0.2-15.1-0.3-23.3-0.3-24.9h4.5V46.5z"/>
			<path class="st0" d="M129.7,46.5l-4.8-7.7c1.7-2.9,3-7.5,3.2-11.6h-4.7c-0.2,2.4-0.7,5-1.5,6.8l-4.4-6.8c2.9-3,4.7-5.8,4.7-10.1
				c0-4.3-2.4-7.7-7.4-7.7c-4.1,0-7.3,2.8-7.3,8.2c0,3.1,1.5,5.6,3.9,8.8c-3.5,3.6-5.5,6.9-5.5,11.1c0,5.9,3.6,9.5,8.6,9.5
				c3.4,0,5.5-1.4,7.5-3.7l2,3.3H129.7L129.7,46.5z M119.3,39c-1.3,1.9-2.7,2.9-4.4,2.9c-2.3,0-4-2-4-4.9c0-2.1,0.9-4.1,3-6.3
				L119.3,39L119.3,39z M117.3,17.1c0,2.5-0.9,3.8-2.5,5.6c-1.5-2.1-2.4-3.8-2.4-5.4c0-1.9,0.9-3.1,2.5-3.1
				C116.2,14.2,117.3,15.4,117.3,17.1z"/>
		</g>
		<path class="st1" d="M49.7,59.4l-4.2,36.4H40l-2.5-24.3l-2.3,24.3h-5.5l-4.1-36.4h4.7l2.2,28.1l2.7-28.1h4.4l3,28.1L45,59.4H49.7
			L49.7,59.4z M70,95.7h-4.7L64.4,89h-5.5l-0.8,6.7h-4.7l5.2-36.4h5.8L70,95.7L70,95.7z M63.8,84.6l-2.3-18.9l-2,18.9H63.8
			L63.8,84.6z M87.8,63.7h-5.7v32.1h-4.9V63.7h-5.5v-4.3h16.1V63.7L87.8,63.7z M108,80.7V87c0,6.1-2.6,9.2-7.9,9.2
			c-5.2,0-7.7-2.9-7.7-8.7V69.3c0-1,0-1.9,0.1-2.8c0.1-0.8,0.3-1.7,0.6-2.7c0.3-1,0.7-1.8,1.3-2.5c0.6-0.7,1.4-1.2,2.4-1.7
			c1-0.5,2.3-0.7,3.7-0.7c2.8,0,4.8,0.8,5.9,2.4c1.1,1.6,1.6,3.8,1.6,6.5v4.6h-4.8v-5.6c0-2.5-1-3.8-3-3.8c-2,0-3,1.3-3,4v20.7
			c0,1.6,0.2,2.8,0.6,3.3c0.4,0.6,1.2,0.9,2.3,0.9c1.2,0,2.1-0.4,2.4-1.1c0.4-0.8,0.6-1.8,0.6-3.1v-7.1H108L108,80.7z M129.2,95.7
			h-4.8V78.8H120v16.9h-4.8V59.4h4.8v14.8h4.4V59.4h4.8V95.7z"/>
	</g>
</g>
</svg>
